<svg width="244" height="70" viewBox="0 0 244 70" fill="none" xmlns="http://www.w3.org/2000/svg">
<path d="M8.62046 15.3834C9.39832 16.4505 10.1961 17.4378 10.984 18.4051L11.2233 18.7043C11.8815 19.522 12.3003 20.1503 12.5796 20.7486C12.5796 20.7486 12.6294 20.8583 12.6593 21.1575C12.6793 21.337 12.6593 21.6163 12.6095 21.9753C12.5397 22.434 12.41 22.813 12.2205 23.142C11.6421 24.1393 10.954 24.7277 9.97673 25.0568C9.56785 25.1964 9.22879 25.2662 8.9695 25.2662C8.95953 25.2662 8.94956 25.2662 8.93959 25.2662C8.84983 25.2662 8.76008 25.2662 8.67033 25.2662C8.48085 25.2662 8.23154 25.2662 8.13181 25.2462C7.79274 25.1665 7.29412 25.0468 7.06475 24.9471C6.59604 24.7277 6.19714 24.4385 5.8481 24.0595C5.37939 23.5609 5.0503 23.0124 4.85085 22.3841C4.7212 21.9753 4.67134 21.5963 4.71123 21.2273C4.75112 20.8484 4.84087 20.5392 4.98049 20.2799C5.45917 19.4323 6.11736 18.5946 6.7556 17.8167C7.42376 16.999 8.04206 16.1912 8.64041 15.3834M8.77005 6.0791C8.5706 6.478 8.3911 6.84698 8.21159 7.20599C6.79549 9.94843 5.06027 12.4814 3.10565 14.8649C2.29788 15.8521 1.52002 16.8693 0.891753 17.9863C0.393126 18.8638 0.133841 19.8013 0.0341153 20.7786C-0.0656101 21.8057 0.0540603 22.8429 0.383154 23.8401C0.802 25.1465 1.4901 26.2934 2.42752 27.2906C3.18544 28.0884 4.06302 28.7266 5.06027 29.2053C5.70849 29.5145 6.40656 29.684 7.10464 29.8436C7.67307 29.9732 8.25148 29.9632 8.81992 29.9832C8.86978 29.9832 8.91964 29.9832 8.95953 29.9832C9.82714 29.9832 10.6549 29.8037 11.4726 29.5244C13.5768 28.8064 15.1525 27.4302 16.2594 25.5155C16.758 24.6479 17.0672 23.7105 17.2268 22.7132C17.3365 22.0251 17.3863 21.337 17.3065 20.6389C17.2367 20.0107 17.0971 19.3924 16.8279 18.814C16.3193 17.707 15.6212 16.7198 14.8533 15.7823C13.9358 14.6455 13.0084 13.5186 12.1607 12.3219C11.1335 10.8559 10.2161 9.33014 9.4781 7.69465C9.23876 7.17608 9.00939 6.64753 8.76008 6.09905L8.77005 6.0791Z" fill="#1E1E1E"/>
<path d="M30.6894 29.973L21.7041 6.08887H28.6849L34.5587 23.3114L40.4624 6.08887H47.4432L38.4181 29.973H30.6894Z" fill="#1E1E1E"/>
<path d="M64.1372 29.973L62.9205 26.353H53.0078L51.7912 29.973H45.0996L54.0749 6.08887H61.8036L70.8287 29.973H64.1372ZM57.9343 11.464L54.6034 21.1673H61.295L57.9343 11.464Z" fill="#1E1E1E"/>
<path d="M72.5852 29.973V6.08887H84.5422C89.9174 6.08887 92.8494 9.70888 92.8494 14.0369C92.8494 18.365 89.9174 21.8753 84.5422 21.8753H78.7382V29.963H72.5752L72.5852 29.973ZM83.7145 11.2845H78.7382V16.6597H83.7145C85.36 16.6597 86.5766 15.6226 86.5766 14.007C86.5766 12.3915 85.36 11.2845 83.7145 11.2845Z" fill="#1E1E1E"/>
<path d="M107.17 5.7002C114.469 5.7002 119.914 10.7862 119.914 18.0561C119.914 25.3261 114.469 30.412 107.17 30.412C99.8697 30.412 94.3848 25.3261 94.3848 18.0561C94.3848 10.7862 99.8597 5.7002 107.17 5.7002ZM107.17 11.1452C103.191 11.1452 100.657 14.1569 100.657 18.0561C100.657 21.9554 103.2 24.9671 107.17 24.9671C111.139 24.9671 113.652 21.9254 113.652 18.0561C113.652 14.1868 111.109 11.1452 107.17 11.1452Z" fill="#1E1E1E"/>
<path d="M123.025 6.08887H129.288V20.0903C129.288 22.9224 130.794 24.9568 134.125 24.9568C137.456 24.9568 138.922 22.9125 138.922 20.0903V6.08887H145.184V20.2698C145.184 26.2134 141.784 30.4018 134.125 30.4018C126.466 30.4018 123.025 26.1735 123.025 20.3096V6.08887Z" fill="#1E1E1E"/>
<path d="M162.806 29.973L158.797 21.8853H155.645V29.973H149.482V6.08887H161.439C166.735 6.08887 169.747 9.59919 169.747 14.0369C169.747 18.1855 167.204 20.4094 164.99 21.1972L169.856 29.973H162.806ZM160.512 11.2845H155.645V16.6597H160.512C162.128 16.6597 163.484 15.6226 163.484 13.9771C163.484 12.3317 162.128 11.2945 160.512 11.2945V11.2845Z" fill="#1E1E1E"/>
</svg>
