<svg width="88" height="82" viewBox="0 0 88 82" fill="none" xmlns="http://www.w3.org/2000/svg">
<path d="M86.3665 29.6054C86.2665 29.5964 86.1635 29.6104 86.0625 29.6114C76.0225 29.6454 65.9825 29.6814 55.9425 29.7124C54.3185 29.7174 54.4355 29.9124 53.8344 28.1854C51.3214 20.9584 48.8175 13.7274 46.2895 6.50441C45.6195 4.59141 44.8735 2.70541 44.1725 0.802412C44.0235 0.398412 43.8374 0.0374077 43.3644 0.00440766C42.7854 -0.0355923 42.6105 0.420415 42.4415 0.852415C42.3865 0.993415 42.3545 1.1434 42.3075 1.2884C39.3235 10.4454 35.9804 19.4764 32.7785 28.5574C32.3644 29.7324 32.3505 29.7414 31.0295 29.7434C28.8485 29.7464 26.6675 29.7464 24.4875 29.7194C16.9335 29.6284 9.37947 29.4014 1.82447 29.5214C1.21047 29.5314 0.279474 29.1974 0.0404745 29.8514C-0.191526 30.4884 0.680455 30.9034 1.15846 31.3234C3.98546 33.8024 7.13846 35.8524 10.1545 38.0834C14.9645 41.6414 19.8144 45.1454 24.6535 48.6644C25.2645 49.1084 25.6575 49.5034 25.3535 50.4094C24.2095 53.8204 23.2075 57.2784 22.0775 60.6944C20.0245 66.9014 17.9145 73.0894 15.8425 79.2904C15.6865 79.7554 15.3895 80.2124 15.6045 80.8994C16.1555 80.7564 16.5064 80.4714 16.8644 80.1994C18.5204 78.9444 20.1395 77.6364 21.8395 76.4434C28.3555 71.8714 35.0505 67.5614 41.5295 62.9334C43.4135 61.5874 43.0815 61.7454 44.7745 62.9694C52.9105 68.8494 61.0645 74.7024 69.3485 80.3734C69.7785 80.6674 70.2195 81.3764 70.7495 80.9574C71.2155 80.5884 70.8065 79.9204 70.6295 79.4004C69.8785 77.1934 69.1045 74.9944 68.3745 72.7804C66.0575 65.7534 63.7625 58.7204 61.4455 51.6934C60.7875 49.6974 60.7785 49.7234 62.5275 48.4504C67.4895 44.8404 72.6085 41.4564 77.6255 37.9274C80.7355 35.7404 83.7865 33.4684 86.8535 31.2194C87.2485 30.9294 87.8195 30.6244 87.6655 30.0454C87.4915 29.3974 86.8405 29.6474 86.3665 29.6054Z" fill="#C47439"/>
<path d="M15.6028 80.8974C15.3878 80.2114 15.6848 79.7545 15.8408 79.2885C17.9128 73.0875 20.0228 66.8995 22.0758 60.6925C23.2058 57.2765 24.2078 53.8185 25.3518 50.4075C25.6558 49.5015 25.2628 49.1065 24.6518 48.6625C19.8128 45.1435 14.9628 41.6395 10.1528 38.0815C7.1378 35.8505 3.9838 33.8015 1.1568 31.3215C0.6788 30.9025 -0.194211 30.4875 0.0387887 29.8495C0.277789 29.1955 1.20779 29.5285 1.82279 29.5195C9.37879 29.3995 16.9318 29.6265 24.4858 29.7175C26.6668 29.7435 28.8468 29.7445 31.0278 29.7415C32.3498 29.7395 32.3628 29.7305 32.7768 28.5555C35.9798 19.4745 39.3228 10.4435 42.3058 1.28646C42.3528 1.14146 42.3848 0.991467 42.4398 0.850467C42.6088 0.417467 42.7838 -0.0375406 43.3628 0.00245943C43.8358 0.0344594 44.0228 0.396464 44.1708 0.800464C44.8718 2.70346 45.6178 4.58946 46.2878 6.50246C48.8158 13.7255 51.3188 20.9555 53.8328 28.1835C54.4338 29.9105 54.3168 29.7155 55.9408 29.7105C65.9808 29.6795 76.0208 29.6445 86.0608 29.6095C86.1618 29.6095 86.2648 29.5945 86.3648 29.6035C86.8378 29.6465 87.4888 29.3965 87.6618 30.0425C87.8158 30.6205 87.2448 30.9264 86.8498 31.2164C83.7828 33.4654 80.7318 35.7365 77.6218 37.9245C72.6038 41.4535 67.4848 44.8375 62.5238 48.4475C60.7748 49.7205 60.7838 49.6945 61.4418 51.6904C63.7598 58.7164 66.0538 65.7505 68.3708 72.7775C69.1008 74.9914 69.8748 77.1904 70.6258 79.3974C70.8028 79.9174 71.2118 80.5854 70.7458 80.9545C70.2158 81.3745 69.7748 80.6655 69.3448 80.3705C61.0618 74.6995 52.9068 68.8465 44.7708 62.9664C43.0778 61.7435 43.4098 61.5855 41.5258 62.9305C35.0478 67.5585 28.3518 71.8684 21.8358 76.4404C20.1358 77.6334 18.5168 78.9415 16.8608 80.1965C16.5048 80.4695 16.1538 80.7544 15.6028 80.8974ZM6.05579 32.0845C17.9488 35.4955 29.6308 39.5745 41.5258 42.9825C41.6048 42.6285 41.4978 42.4584 41.3728 42.3024C38.8088 39.0954 36.2328 35.8985 33.6868 32.6765C33.2108 32.0745 32.6218 31.9935 31.9398 31.9845C29.3038 31.9515 26.6668 31.9185 24.0318 31.8485C18.0498 31.6905 12.0708 31.8315 6.05579 32.0845ZM45.5128 43.9255C45.6528 44.3925 45.9458 44.3665 46.1718 44.4375C49.9438 45.6105 53.7228 46.7605 57.4838 47.9635C58.3248 48.2325 58.9108 47.9665 59.5738 47.4995C65.9558 43.0095 72.3558 38.5475 78.7488 34.0735C79.0208 33.8825 79.4078 33.7585 79.3338 33.3005C79.1428 33.0295 78.8778 33.1055 78.6578 33.1815C67.6808 36.9775 56.4348 39.9595 45.5128 43.9255ZM19.9118 75.1725C26.7378 65.0775 34.2248 55.5295 41.1258 45.5705C40.8048 45.3085 40.5748 45.4375 40.3368 45.5094C36.8468 46.5685 33.3358 47.5575 29.9118 48.8325C29.0548 49.1515 28.5978 49.6175 28.3028 50.4525C25.5218 58.3345 22.7098 66.2055 19.9128 74.0825C19.8058 74.3855 19.5308 74.6905 19.9118 75.1725ZM44.0558 46.0575C43.8448 46.3975 43.7538 46.4754 43.7548 46.5524C43.8048 50.2014 43.8738 53.8505 43.9148 57.4995C43.9278 58.6055 44.3678 59.3685 45.3038 60.0115C48.3108 62.0765 51.2638 64.2195 54.2298 66.3435C56.9498 68.2905 59.6468 70.2695 62.3848 72.1895C62.8738 72.5325 63.3148 73.1335 64.3208 72.9425C57.4748 63.9735 50.7508 55.1235 44.0558 46.0575ZM43.8278 8.46146C43.7418 8.46846 43.6548 8.47546 43.5688 8.48346C43.5688 9.88646 43.5958 11.2895 43.5538 12.6915C43.5398 13.1765 43.8688 13.7825 43.1588 14.1275C42.9428 14.2325 43.0678 14.4215 43.3088 14.5235C43.7258 14.6995 43.6188 15.1265 43.6358 15.4545C43.6798 16.3145 43.6818 17.1765 43.6868 18.0375C43.7308 25.1375 43.7718 32.2385 43.8128 39.3385C43.8158 39.9225 43.8128 40.5075 43.8128 41.1245C44.0918 41.0595 44.2248 41.0695 44.2688 41.0125C46.4648 38.0975 48.6348 35.1635 50.8528 32.2665C51.4868 31.4375 51.4748 30.6835 51.1388 29.7285C49.3568 24.6595 47.6448 19.5665 45.9048 14.4825C45.2178 12.4725 44.5208 10.4675 43.8278 8.46146ZM64.6138 73.4225C64.5328 73.3725 64.4518 73.3235 64.3698 73.2735C64.3468 73.3175 64.2988 73.3935 64.3058 73.3995C64.3748 73.4535 64.4518 73.5005 64.5318 73.5365C64.5408 73.5395 64.5858 73.4625 64.6138 73.4225ZM79.9318 32.8844C79.8678 32.9194 79.8018 32.9565 79.7358 32.9925C79.7698 33.0265 79.8108 33.0935 79.8358 33.0875C79.9078 33.0715 79.9728 33.0265 80.0398 32.9925C80.0058 32.9594 79.9718 32.9254 79.9318 32.8844Z" fill="#E4DDCD"/>
</svg>
