<svg width="131" height="124" viewBox="0 0 131 124" fill="none" xmlns="http://www.w3.org/2000/svg">
<path d="M23.0393 76.7569C26.8917 80.9087 31.8076 84.6318 37.2927 86.2845C40.714 87.3121 44.4226 87.3696 47.9652 87.1173C54.3957 86.6638 59.9248 83.185 63.0475 77.5011C64.5142 74.8295 65.291 71.6079 65.2319 68.5611C65.1808 65.7866 63.8227 62.5482 61.4203 60.9458C59.0945 59.3912 55.179 58.7333 53.0344 61.004C52.0572 62.0364 51.5989 63.6636 51.5989 65.0608C51.5989 67.1032 53.2524 68.7559 55.2932 68.7559C57.3371 68.7559 58.9907 67.1032 58.9907 65.0608C58.9907 63.0177 57.3371 61.3657 55.2932 61.3657C54.5011 61.3657 53.7658 61.6244 53.163 62.0508C53.4352 61.6995 53.7714 61.4049 54.28 61.1549C57.298 59.6611 61.5592 61.5079 62.8822 64.5043C63.9042 66.8245 63.782 69.7987 63.2846 72.2418C62.348 76.8855 58.6937 80.9926 54.3606 82.809C52.4236 83.6218 50.2823 83.9252 48.1928 83.989C41.9475 84.1775 35.0859 81.8022 30.6171 77.3781C25.5216 72.3369 22.1179 64.8987 20.4396 58.0291C18.6024 50.5167 18.2455 42.5038 19.1597 34.8349C20.1019 26.897 22.8596 17.7638 30.9053 14.349C33.7509 13.1418 37.066 13.1561 39.8102 14.6452C42.1583 15.9187 43.9348 18.8066 44.0282 21.518C44.1624 25.4439 41.4597 30.1043 37.0676 29.8232C33.3573 29.5837 32.6627 24.2359 35.2631 22.16C35.2743 22.1504 37.2209 20.6701 37.2209 20.6701C34.8384 21.6218 32.6818 22.3524 31.0203 24.4442C29.4642 26.4052 29.259 29.2691 30.661 31.3817C32.0088 33.4121 34.7354 33.999 37.0452 33.71C38.2085 33.5646 39.3127 33.1726 40.2948 32.5243C43.6051 30.3462 45.4478 25.9605 45.2059 22.0769C44.9767 18.405 42.8993 14.7801 39.5874 13.0156C34.9981 10.5693 28.7871 11.0148 24.4006 13.6879C18.4986 17.2816 14.9616 24.0083 12.7356 30.3238C11.55 33.6884 10.9008 37.5224 10.6605 41.0698C9.81819 53.6378 14.4435 67.4864 23.0393 76.7569Z" fill="#E4DDCD"/>
<path d="M63.9922 13.6437C60.0161 10.7606 56.1414 7.99809 51.6598 5.9174C47.5918 4.02993 43.3139 3.13329 38.8739 2.67739C35.9532 2.37878 32.6709 2.64066 29.803 3.2275C18.3903 5.55969 11.0217 15.7316 7.00081 25.981C3.67139 34.4674 3.35361 43.9886 4.52171 52.9445C5.76964 62.5024 9.60607 72.636 16.3583 79.6805C18.3767 81.7875 20.6698 83.5792 22.907 85.4403C17.5368 81.6151 12.2736 77.2581 8.79247 71.6348C0.769916 58.7011 -2.47488 42.2568 2.07214 27.5275C6.11775 14.419 14.9667 2.38917 29.3654 0.397105C38.2679 -0.838056 46.9204 0.781125 54.5102 5.73534C57.9434 7.98051 60.7043 11.2597 63.9922 13.6437Z" fill="#E4DDCD"/>
<path d="M107.433 76.7575C103.58 80.9093 98.6642 84.6324 93.1791 86.2851C89.7562 87.3127 86.0476 87.3702 82.5041 87.1179C76.0768 86.6644 70.5438 83.1856 67.4243 77.5017C65.9576 74.8301 65.1816 71.6085 65.2383 68.5617C65.2909 65.7872 66.6483 62.5488 69.0499 60.9464C71.3757 59.3918 75.2904 58.7339 77.4374 61.0047C78.413 62.037 78.8721 63.6642 78.8721 65.0614C78.8721 67.1038 77.217 68.7565 75.1762 68.7565C73.1339 68.7565 71.4811 67.1038 71.4811 65.0614C71.4811 63.0183 73.1339 61.3663 75.1762 61.3663C75.9691 61.3663 76.7052 61.625 77.3072 62.0514C77.0373 61.7001 76.6996 61.4055 76.1894 61.1556C73.1738 59.6617 68.9118 61.5085 67.5896 64.5049C66.5668 66.8252 66.6898 69.7993 67.1848 72.2424C68.1238 76.8861 71.7773 80.9932 76.1096 82.8096C78.0466 83.6224 80.1887 83.9258 82.2782 83.9897C88.5235 84.1781 95.3851 81.8028 99.8531 77.3787C104.948 72.3375 108.352 64.8994 110.03 58.0297C111.867 50.5174 112.225 42.5044 111.31 34.8355C110.367 26.8976 107.611 17.7645 99.5648 14.3488C96.7177 13.1408 93.405 13.1543 90.66 14.6458C88.3127 15.9185 86.5346 18.8056 86.4412 21.5186C86.307 25.4445 89.0113 30.1049 93.4026 29.8238C97.1137 29.5843 97.8067 24.2365 95.2079 22.1606C95.1967 22.1494 93.2501 20.6691 93.2501 20.6691C95.6318 21.6208 97.7884 22.3522 99.4515 24.4449C101.004 26.4058 101.211 29.2697 99.8092 31.3824C98.4606 33.4127 95.7332 33.9996 93.4258 33.7106C92.2617 33.5653 91.1567 33.1732 90.1754 32.5249C86.8659 30.3468 85.0224 25.9611 85.2643 22.0775C85.4942 18.404 87.5709 14.7792 90.8828 13.0138C95.4705 10.5683 101.681 11.0138 106.07 13.6885C111.969 17.2806 115.509 24.0089 117.735 30.3245C118.919 33.689 119.569 37.523 119.807 41.0704C120.654 53.6384 116.026 67.487 107.433 76.7575Z" fill="#E4DDCD"/>
<path d="M66.4785 13.6412C70.4563 10.7589 74.331 7.99639 78.8118 5.9173C82.8789 4.02823 87.1561 3.1324 91.5969 2.6749C94.5175 2.37709 97.8014 2.63895 100.669 3.22659C112.081 5.55879 119.449 15.7315 123.472 25.9816C126.801 34.4681 127.119 43.9893 125.95 52.9452C124.703 62.5031 120.866 72.6367 114.114 79.6812C112.096 81.7882 109.803 83.5799 107.564 85.441C112.936 81.6158 118.197 77.2588 121.681 71.6355C129.703 58.7018 132.946 42.2575 128.4 27.5282C124.355 14.4197 115.506 2.38906 101.105 0.396197C92.2053 -0.838964 83.5528 0.77943 75.963 5.73604C72.529 7.97881 69.7664 11.2595 66.4785 13.6412Z" fill="#E4DDCD"/>
<path d="M66.5055 51.2312V81.1082H66.5374C66.8376 89.7224 69.7463 97.4735 74.2733 103.114C69.47 108.239 66.1494 115.543 65.2671 123.842H65.2344H65.2032C64.3178 115.543 60.9995 108.239 56.1946 103.114C60.7249 97.4735 63.6311 89.7224 63.9305 81.1082H63.9617V51.2312C63.9617 41.2134 60.4374 32.2487 54.8916 26.2222C59.7141 22.1702 63.4084 16.1222 65.2352 8.98828C67.0612 16.1222 70.7547 22.1702 75.5787 26.2222C70.0297 32.2487 66.5055 41.2134 66.5055 51.2312Z" fill="#E4DDCD"/>
<path d="M65.2486 1.89955L60.0127 7.13477L65.2479 12.3707L70.4838 7.13549L65.2486 1.89955Z" fill="#E4DDCD"/>
</svg>
