<svg width="84" height="87" viewBox="0 0 84 87" fill="none" xmlns="http://www.w3.org/2000/svg">
<path d="M82.4429 30.0529C76.5609 30.0279 70.6779 30.0499 64.799 29.7919C63.888 29.7519 62.974 29.7629 62.061 29.7669C61.461 29.7699 61.2079 29.5259 61.4009 28.9249C61.4779 28.6839 61.5769 28.4499 61.6589 28.2109C63.6729 22.3109 65.702 16.4159 67.673 10.5019C67.876 9.89392 68.5909 9.07392 67.9169 8.59692C67.4449 8.26292 66.7829 9.05293 66.2629 9.41893C61.1229 13.0369 56.078 16.7909 50.837 20.2669C49.445 21.1899 49.448 21.1939 48.913 19.6749C48.829 19.4359 48.7329 19.2009 48.6559 18.9599C46.7629 13.0739 44.872 7.18692 42.978 1.30092C42.832 0.847919 42.788 0.33093 42.304 0.00292969C41.71 0.57993 41.571 1.29592 41.35 1.94792C40.225 5.25792 39.14 8.58192 38.035 11.8979C37.137 14.5899 36.253 17.2869 35.314 19.9639C34.992 20.8809 34.8179 20.8939 33.9969 20.3849C33.7389 20.2249 33.4989 20.0359 33.2529 19.8559C28.0549 16.0539 22.86 12.2499 17.658 8.45493C17.365 8.24093 17.111 7.85292 16.65 8.03992C16.502 8.43892 16.6699 8.77192 16.7739 9.10092C17.9769 12.9189 19.192 16.7329 20.397 20.5509C21.175 23.0159 21.9469 25.4829 22.7059 27.9539C23.1239 29.3129 23.0419 29.4069 21.5809 29.4349C21.4289 29.4379 21.2769 29.4249 21.1249 29.4279C15.1929 29.5249 9.25797 29.3139 3.32697 29.5919C2.74697 29.6189 2.15592 29.5819 1.57092 29.8829C1.76292 30.3179 2.06293 30.5139 2.33893 30.7209C4.44393 32.2989 6.55394 33.8719 8.66394 35.4449C11.2649 37.3849 13.892 39.2919 16.462 41.2729C18.335 42.7159 18.9629 42.4899 16.4459 44.3449C11.3469 48.1029 6.23194 51.8389 1.12994 55.5929C0.700944 55.9089 0.140977 56.1219 0.000976562 56.7439C0.463977 57.1229 0.985981 57.0089 1.47998 57.0109C7.91898 57.0349 14.359 57.0499 20.798 57.0799C21.321 57.0819 21.889 56.9429 22.436 57.3229C21.462 60.9569 20.045 64.3779 18.975 67.9099C17.897 71.4679 16.552 74.9489 15.848 78.6769C22.163 74.6329 27.9049 69.9009 34.0679 65.5329C34.5849 66.1919 34.761 66.8229 34.96 67.4469C36.892 73.4799 38.8189 79.5139 40.7839 85.5359C40.9539 86.0579 40.8779 86.9519 41.6619 86.9469C42.3559 86.9429 42.2719 86.0999 42.4249 85.6159C44.3419 79.5779 46.205 73.5229 48.124 67.4849C48.76 65.4829 48.546 65.3049 50.522 66.7619C55.705 70.5829 60.881 74.4149 66.062 78.2389C66.3719 78.4679 66.6209 78.8579 67.2789 78.6609C66.4169 75.0859 65.119 71.6399 64.098 68.1159C63.074 64.5809 61.892 61.0909 60.791 57.6219C61.285 57.2999 61.699 57.3709 62.1 57.3669C67.778 57.3119 73.4559 57.2589 79.1349 57.2069C80.2 57.1969 81.265 57.2009 82.33 57.1889C82.575 57.1859 82.868 57.2019 82.941 56.8849C82.99 56.6729 82.839 56.5039 82.681 56.3739C82.368 56.1159 82.057 55.8539 81.73 55.6159C79.843 54.2459 77.9499 52.8849 76.0599 51.5179C72.8149 49.1709 69.5659 46.8269 66.3279 44.4699C65.2799 43.7069 65.279 43.5679 66.265 42.8479C68.599 41.1449 70.928 39.4329 73.29 37.7689C76.441 35.5509 79.6259 33.3799 82.7839 31.1719C83.1119 30.9419 83.6799 30.8179 83.5029 30.1999C83.1489 29.9939 82.7879 30.0539 82.4429 30.0529Z" fill="#C47439"/>
<path d="M34.067 65.53C27.904 69.899 22.162 74.631 15.847 78.674C16.552 74.946 17.897 71.465 18.974 67.907C20.044 64.376 21.46 60.955 22.435 57.32C21.888 56.94 21.32 57.079 20.797 57.077C14.358 57.047 7.918 57.031 1.479 57.008C0.984004 57.006 0.462 57.12 0 56.741C0.14 56.119 0.700028 55.906 1.12903 55.59C6.23103 51.836 11.346 48.1 16.445 44.342C18.962 42.487 18.333 42.714 16.461 41.27C13.891 39.289 11.265 37.382 8.66302 35.442C6.55402 33.869 4.44401 32.297 2.33801 30.718C2.06201 30.511 1.76201 30.315 1.57001 29.88C2.15501 29.579 2.74599 29.616 3.32599 29.589C9.25699 29.312 15.191 29.522 21.124 29.425C21.276 29.423 21.428 29.435 21.58 29.432C23.041 29.404 23.123 29.31 22.705 27.951C21.945 25.48 21.173 23.013 20.396 20.548C19.192 16.73 17.976 12.916 16.773 9.09799C16.669 8.76899 16.501 8.436 16.649 8.037C17.11 7.85 17.365 8.238 17.658 8.452C22.86 12.247 28.056 16.051 33.253 19.853C33.499 20.033 33.739 20.222 33.997 20.382C34.818 20.892 34.992 20.879 35.313 19.961C36.253 17.284 37.137 14.587 38.034 11.895C39.14 8.578 40.224 5.25499 41.349 1.94499C41.57 1.29299 41.709 0.576 42.303 0C42.787 0.328 42.832 0.845004 42.977 1.298C44.871 7.184 46.762 13.071 48.655 18.957C48.733 19.198 48.828 19.433 48.912 19.672C49.447 21.191 49.444 21.187 50.836 20.264C56.077 16.789 61.122 13.034 66.262 9.416C66.782 9.05 67.444 8.25999 67.916 8.59399C68.59 9.07099 67.874 9.89099 67.672 10.499C65.701 16.413 63.671 22.308 61.658 28.208C61.576 28.448 61.478 28.682 61.4 28.922C61.207 29.523 61.46 29.767 62.06 29.764C62.973 29.76 63.887 29.749 64.798 29.789C70.677 30.047 76.56 30.025 82.442 30.05C82.787 30.051 83.148 29.991 83.502 30.194C83.678 30.811 83.111 30.936 82.783 31.166C79.625 33.374 76.44 35.544 73.289 37.763C70.927 39.426 68.598 41.139 66.264 42.842C65.278 43.561 65.279 43.701 66.327 44.464C69.565 46.822 72.813 49.165 76.059 51.512C77.949 52.879 79.842 54.241 81.729 55.61C82.057 55.848 82.368 56.11 82.68 56.368C82.838 56.498 82.989 56.667 82.94 56.879C82.866 57.196 82.573 57.18 82.329 57.183C81.264 57.195 80.199 57.191 79.134 57.201C73.456 57.253 67.778 57.306 62.1 57.361C61.699 57.365 61.285 57.294 60.791 57.616C61.891 61.085 63.074 64.575 64.098 68.11C65.119 71.634 66.417 75.081 67.279 78.655C66.621 78.852 66.372 78.462 66.062 78.233C60.881 74.409 55.705 70.577 50.522 66.756C48.546 65.299 48.76 65.477 48.124 67.479C46.205 73.516 44.342 79.571 42.425 85.61C42.271 86.094 42.356 86.937 41.662 86.941C40.878 86.946 40.954 86.051 40.784 85.53C38.819 79.508 36.892 73.473 34.96 67.441C34.76 66.82 34.584 66.189 34.067 65.53ZM20.783 14.034C20.654 13.923 20.515 13.868 20.426 14.06C20.407 14.1 20.524 14.203 20.579 14.277C21.113 15.91 21.648 17.543 22.18 19.177C24.183 25.34 26.193 31.501 28.182 37.669C28.64 39.088 28.608 39.1 27.335 40.015C20.918 44.626 14.499 49.234 8.086 53.851C7.827 54.037 7.40501 54.132 7.49701 54.606C7.60201 54.643 7.69201 54.702 7.78101 54.702C15.989 54.701 24.196 54.631 32.402 54.465C33.181 54.449 33.456 54.09 33.679 53.459C34.487 51.167 35.322 48.884 36.153 46.601C36.668 45.186 36.688 45.169 35.425 44.228C33.678 42.927 31.901 41.667 30.152 40.368C29.786 40.096 29.227 39.922 29.31 39.171C29.853 39.171 30.354 39.181 30.855 39.169C33.084 39.119 35.312 39.028 37.54 39.027C38.426 39.027 38.958 38.766 39.226 37.878C39.987 35.357 40.795 32.851 41.595 30.343C41.789 29.736 41.686 29.259 41.135 28.893C40.841 28.697 40.573 28.461 40.295 28.241C35.33 24.307 30.12 20.703 25.038 16.927C23.663 15.905 22.317 14.827 20.783 14.034ZM41.646 79.649C42.151 77.803 42.672 76.3 43.167 74.794C45.211 68.587 47.203 62.363 49.203 56.141C49.747 54.449 49.792 54.373 51.523 54.434C59.327 54.71 67.135 54.655 74.941 54.685C75.237 54.686 75.662 54.898 75.857 54.304C74.451 53.272 73.018 52.239 71.604 51.18C66.449 47.323 61.258 43.519 56.011 39.788C55.373 39.334 54.932 39.258 54.288 39.75C52.152 41.379 49.989 42.974 47.804 44.536C47.169 44.99 47.181 45.481 47.38 46.118C47.937 47.907 48.481 49.701 49.001 51.501C49.234 52.309 49.6 53.1 49.516 53.971C48.978 54.095 48.713 53.735 48.4 53.508C46.596 52.197 44.801 50.873 42.998 49.561C41.781 48.676 41.779 48.684 40.53 49.62C38.665 51.018 36.796 52.412 34.93 53.809C33.731 54.707 33.746 54.704 34.195 56.184C36.197 62.779 38.181 69.379 40.195 75.97C40.54 77.106 40.866 78.261 41.646 79.649ZM63.091 15.088C61.955 15.536 61.116 16.445 60.125 17.115C54.459 20.943 48.904 24.929 43.373 28.948C42.281 29.742 42.251 29.813 42.647 31.081C43.341 33.304 44.046 35.523 44.756 37.741C45.126 38.895 45.136 38.912 46.34 38.923C48.771 38.945 51.202 38.954 53.634 38.946C54.997 38.942 55.041 38.92 55.492 37.641C58.033 30.432 60.56 23.218 63.091 16.006C63.19 15.722 63.335 15.44 63.091 15.088Z" fill="#E4DDCD"/>
</svg>
