<svg width="97" height="56" viewBox="0 0 97 56" fill="none" xmlns="http://www.w3.org/2000/svg">
<path d="M34.6125 54.4838C31.8238 53.853 28.8275 52.629 25.7043 50.8465C23.1532 49.3931 21.0553 47.3363 18.9596 45.1695C19.1275 45.0732 19.2927 44.9708 19.4559 44.8705C20.1679 44.4356 20.841 44.0226 21.5735 44.0226C21.8944 44.0226 22.2043 44.1011 22.5176 44.2663C23.401 44.7319 24.012 45.6234 24.6039 46.4836C24.7124 46.642 24.8203 46.7997 24.9302 46.9533C25.6156 47.9213 26.4204 48.8545 27.3222 49.7229C28.592 50.9401 30.2816 52.1108 32.0784 53.0215C34.5879 54.2879 37.4742 54.9337 40.6582 54.9337H40.6609C45.6717 54.9337 51.1194 53.3055 55.6059 50.4711C60.717 47.2427 65.0056 42.0367 67.6823 35.8108L67.7233 35.7172L67.6291 35.6797C61.9063 33.4276 56.4183 30.6655 52.2779 28.511L52.2363 28.4898L52.1926 28.5069C50.916 29.0721 49.6216 29.6551 48.3724 30.219C42.8373 32.7169 37.1131 35.3008 31.2019 36.8771C28.5381 37.5864 26.3952 37.9154 24.4482 37.9154C23.046 37.9154 21.723 37.7366 20.5167 37.3836C19.4026 37.0573 18.1014 36.3678 16.532 35.2824C13.9877 33.5211 12.1752 30.7788 11.427 27.5641L11.412 27.5068L11.3574 27.4897C11.1382 27.4296 10.917 27.3627 10.702 27.2952C10.4235 27.2016 10.1429 27.1136 9.863 27.0241C9.08271 26.7777 8.2751 26.5203 7.49208 26.2295C5.199 25.3734 3.50393 24.3631 2.3079 23.135C0.799881 21.5853 0.0455331 19.6882 0.00115962 17.3295C-0.0466272 14.6644 1.39175 12.8212 2.60758 11.7426C4.09444 10.4264 6.12881 9.50684 8.05052 9.28566C9.05609 9.16892 10.0384 9.11157 11.0495 9.11157C13.1937 9.11157 15.3715 9.3662 17.9021 9.91439L17.956 9.92532L17.9949 9.8871C18.4414 9.44063 18.9227 8.97845 19.4306 8.51424C22.3217 5.86548 26.0272 3.69119 30.7595 1.86574C32.9106 1.03561 35.2651 0.495619 38.1712 0.167938C39.1556 0.0559803 40.1728 0 41.1941 0C43.7131 0 46.3209 0.337231 48.9458 1.0083C51.5161 1.66297 53.9661 2.62077 56.2312 3.85776C58.5428 5.12207 60.6727 6.68059 62.5603 8.49172L62.6005 8.53199L62.6538 8.51561C63.9884 8.15311 65.3299 7.82407 66.6419 7.53598C68.6899 7.0861 70.8124 6.77684 72.9512 6.61642C74.0858 6.53245 75.1924 6.48944 76.2375 6.48944C79.3546 6.48944 82.1768 6.87243 84.635 7.62678C87.5337 8.51629 90.0363 9.95673 92.0741 11.9085C92.8919 12.6908 93.5364 13.6684 94.131 14.6576C93.2708 13.5899 92.3908 12.7284 91.4413 12.0177C88.4751 9.79835 84.5217 8.67126 79.6912 8.67126C78.1135 8.67126 76.4137 8.7921 74.6394 9.03103C71.3981 9.46794 68.2169 10.1765 65.1797 11.1405L65.0411 11.1814L65.1332 11.2961C66.4276 12.899 67.5813 14.6678 68.5589 16.5506C68.8231 17.0558 69.0702 17.5801 69.2948 18.1078L69.3255 18.1808L69.4054 18.1651C70.3079 17.9801 71.211 17.8224 72.0944 17.6948C73.7356 17.4599 75.6477 17.1985 77.5537 17.0653C78.377 17.008 79.1935 16.9773 79.9772 16.9773C85.7239 16.9773 90.3183 18.5269 93.6313 21.5771C95.3338 23.1438 96.2629 25.1488 96.3189 27.3771C96.3817 29.8436 95.3325 32.3633 93.4428 34.2871C91.5191 36.2484 88.7659 37.7495 86.0789 38.3018C84.5231 38.6234 82.9174 38.7872 81.3084 38.7872C77.9681 38.7872 74.4831 38.1182 70.3427 36.6846L70.243 36.6511L70.2137 36.7515C70.1283 37.0566 70.0362 37.3659 69.9406 37.6717C67.7683 44.6315 62.122 50.4567 54.8324 53.2529C51.0778 54.6927 47.0555 55.4238 42.8762 55.4238C40.14 55.4231 37.3602 55.1064 34.6125 54.4838ZM71.2493 21.7628C71.0472 21.8188 70.8479 21.8747 70.6478 21.9321L70.5557 21.956L70.5762 22.0495C71.2022 24.7201 71.4315 27.5709 71.2779 30.7672C71.2049 32.2493 70.9393 33.9143 70.4874 35.72L70.4642 35.8108L70.5516 35.8374C71.5851 36.1883 72.6276 36.5003 73.6529 36.7679C75.4033 37.2212 77.2636 37.5038 79.1812 37.6014C79.7908 37.6321 80.397 37.6478 80.9841 37.6478C85.9533 37.6478 92.4537 36.4934 95.1877 30.9952C95.8752 29.6142 96.0923 27.4856 95.6977 26.0459C94.9522 23.3247 92.156 21.414 89.7899 20.5326C87.9282 19.8404 85.9191 19.5032 83.6459 19.5032C79.3642 19.5025 74.8654 20.7559 71.2493 21.7628ZM45.9147 27.2016C45.9892 27.1682 47.9655 26.2459 47.9655 26.2459C47.9655 26.2459 45.6519 25.0246 44.5815 24.4634C43.3554 23.8156 42.0467 23.1275 40.3333 22.2304L40.2895 22.2079L40.0158 22.3369C36.6304 23.9166 33.2335 25.1727 29.9198 26.0704C28.4309 26.4759 26.8772 26.8289 25.2988 27.1306C22.6849 27.6269 19.6463 28.156 16.6446 28.156C15.155 28.156 13.8061 28.029 12.5206 27.7696L12.3582 27.7375L12.4073 27.8959C13.0285 29.9064 14.2519 31.6936 15.8514 32.9313C17.6058 34.2843 19.7917 35.1035 22.347 35.3657C22.6036 35.3923 22.8733 35.4046 23.1477 35.4046C24.6571 35.4046 26.1822 35.0141 27.6568 34.6338L28.007 34.5458C33.2451 33.2125 38.3084 30.8075 43.2039 28.4823C44.0934 28.0611 45.0102 27.6262 45.9093 27.2064L45.9147 27.2016ZM68.8026 22.4598L68.6988 22.4878C64.5434 23.7009 60.9485 24.9119 57.7031 26.1879C56.6443 26.6063 55.5383 27.061 54.3211 27.5812L54.1402 27.6583L54.3095 27.7573C54.7178 27.9963 55.1253 28.2359 55.5336 28.4734C55.9404 28.7096 56.3452 28.9479 56.7507 29.1841C57.5693 29.6626 58.4151 30.159 59.2561 30.6293C62.5637 32.4739 65.3305 33.8235 67.9602 34.8782L68.0523 34.9158L68.1206 34.7478C69.4484 31.3707 69.6778 27.3859 68.8217 22.5683L68.8026 22.4598ZM19.9822 12.3536L19.9371 12.3911C16.76 15.1204 13.5583 18.1098 12.3663 22.0168C12.0619 23.0237 11.9199 24.0757 11.9486 25.142L11.9533 25.2301L12.04 25.2383C12.9732 25.3154 13.9187 25.3543 14.8513 25.3543C17.6236 25.3543 20.4082 25.0184 23.3628 24.3276C27.8636 23.2729 31.9787 21.4501 35.4119 19.8104L35.588 19.7278L35.0501 19.4356C33.6349 18.6689 32.1706 17.8757 30.711 17.1452C28.7729 16.1786 26.7468 15.2303 24.5124 14.2521C23.018 13.5933 21.5482 12.957 20.0361 12.3747L19.9822 12.3536ZM64 11.5269L63.9358 11.5494C62.7548 11.9535 61.5677 12.4055 60.4092 12.8963C56.4893 14.5484 52.5653 16.3922 48.7703 18.1788C47.762 18.6519 46.7558 19.127 45.7461 19.596C44.7972 20.0397 43.8381 20.5053 42.9117 20.9518L42.5157 21.1423L42.6898 21.2344C44.1118 21.9853 45.514 22.7356 46.8562 23.4674C47.8119 23.9904 48.8441 24.5699 50.0108 25.2424L50.0551 25.269L52.1345 24.2982C52.6117 24.0859 53.0916 23.8716 53.5695 23.6572C54.528 23.2278 55.5185 22.7827 56.5029 22.3676C60.7416 20.5743 64.3256 19.3543 67.7827 18.5263L67.8865 18.4983L67.8557 18.4006C67.0823 15.9273 65.7995 13.6302 64.0437 11.5767L64 11.5269ZM3.70259 12.0143C1.91468 13.1421 0.0277931 15.4474 0.590995 18.2368C1.63275 23.3998 8.18432 24.7727 10.9519 25.1249L11.0693 25.1386L11.0638 25.0212C10.9737 23.3773 11.1464 21.7253 11.5826 20.1121C12.3971 17.0893 14.0409 14.2227 16.6091 11.3507L16.7115 11.2333L16.562 11.1896C14.2621 10.5227 12.2339 10.2004 10.3634 10.2004C7.85459 10.1997 5.61338 10.8094 3.70259 12.0143ZM44.6525 3.33347C37.7637 3.5963 30.7888 5.70437 24.4837 9.4297C24.1164 9.64679 23.7451 9.85433 23.3846 10.055C22.8917 10.3295 22.3852 10.6114 21.8971 10.9152L21.7298 11.0203L21.9148 11.0913C23.4181 11.6607 24.8769 12.3433 26.1071 12.9352C30.5977 15.0993 34.2793 16.9138 37.6961 18.6512L37.7405 18.6724L37.7842 18.6526C38.4279 18.3338 39.0683 18.0136 39.7106 17.6927C41.7197 16.6912 43.7957 15.6556 45.8731 14.706C51.2375 12.2525 56.2237 10.3697 61.1157 8.94774L61.3001 8.89517L61.1512 8.77503C60.2269 8.03024 59.2309 7.3503 58.1932 6.75365C54.285 4.50425 49.9145 3.31709 45.5543 3.31709C45.256 3.31641 44.9522 3.32118 44.6525 3.33347Z" fill="#E4DDCD"/>
</svg>
