<svg width="112" height="111" viewBox="0 0 112 111" fill="none" xmlns="http://www.w3.org/2000/svg">
<path d="M19.4909 93.4538C22.3849 88.7906 21.9945 83.3847 18.3887 79.5486C16.0719 82.0353 13.3226 83.5111 9.78557 82.7613C9.32501 82.4425 9.36854 81.9441 9.53001 81.5636C11.6095 76.6252 10.2124 72.2162 7.74817 67.8143C4.62958 62.2455 1.61912 56.5854 0.462112 50.2008C-0.734211 43.6042 0.323102 37.2182 4.44564 32.0229C8.27893 27.1898 13.4251 23.8985 20.1818 24.7621C20.6255 24.8183 21.072 24.88 21.5185 24.8842C25.3518 24.9165 25.7745 24.4785 25.3504 21.0496C24.7438 16.1323 26.777 11.8623 30.0079 8.16381C35.4447 1.94209 42.5075 -0.400012 50.4886 0.0549282C53.9119 0.250103 57.2243 1.45485 60.3611 3.08926C64.9274 5.46927 69.3251 8.15679 74.0711 10.2251C77.0521 11.5253 79.682 11.3737 82.4144 9.93161C82.8104 9.7224 83.1797 9.45982 83.5813 9.26184C85.644 8.24384 86.2281 8.56679 86.7968 10.8892C87.6884 14.5372 86.5328 17.4859 83.8733 20.0021C83.2359 20.6058 82.3667 21.006 82.0129 21.8934C86.0624 25.5414 92.6351 25.3954 96.2452 21.5817C97.6437 20.1046 97.69 19.7325 96.0486 18.4659C92.8724 16.0171 91.5764 13.0193 92.7601 9.04701C94.5686 2.97553 101.893 1.15718 106.467 5.6125C109.955 9.0105 110.74 13.4307 111.109 17.9015C111.403 21.4638 111.312 25.0893 111.036 28.66C110.496 35.6624 106.811 41.0585 101.7 45.577C96.255 50.3904 89.6584 52.8069 82.7177 54.4595C75.0203 56.2919 67.2077 56.716 59.3319 56.3958C58.7716 56.3734 58.21 56.3621 57.6497 56.3383C56.3186 56.2821 55.5098 56.8325 55.4143 58.2325C55.361 59.016 55.2388 59.7995 55.2529 60.5802C55.42 70.1788 52.9599 79.286 49.4678 88.0507C46.4854 95.5361 41.8181 101.971 34.8718 106.493C32.2602 108.192 29.3171 109.21 26.3881 109.506C19.9613 110.156 13.3745 110.939 7.61337 106.676C2.54866 102.927 1.96454 95.8689 6.4016 91.4402C8.92764 88.9184 14.1384 89.0181 17.2443 91.5975C17.9913 92.2181 18.3227 93.3555 19.4909 93.4538ZM29.4294 56.0715C28.7849 56.035 28.4283 56.4941 28.0365 56.8831C23.2358 61.6445 18.4589 61.0618 14.4824 58.8559C8.11184 55.3217 5.02836 50.4142 6.05618 41.6412C6.85092 34.8578 12.3664 29.8956 19.4741 28.9984C25.811 28.198 30.9557 30.1413 34.6135 35.5557C35.3282 36.613 35.7663 37.711 35.7607 38.9972C35.7438 42.8572 34.4394 46.0024 30.9108 47.9668C30.3337 48.2884 29.6148 48.6605 29.758 49.4496C29.8858 50.1531 30.5794 50.4507 31.2099 50.7147C34.1487 51.9419 37.7335 50.5504 39.132 47.561C39.6038 46.5529 39.9281 45.4661 40.2244 44.3877C41.1301 41.1034 41.116 41.022 44.3118 41.1778C46.081 41.2635 47.6607 40.8296 49.1336 39.9857C53.3418 37.5692 54.4778 32.4301 51.5993 28.9408C50.2766 29.3354 49.8624 30.6103 49.1336 31.5581C46.4602 35.0333 43.3486 35.939 39.3763 34.2091C37.4063 33.3512 35.5879 32.152 34.3298 30.3899C27.1814 20.3699 33.1981 10.2672 40.9784 6.84673C46.5641 4.3909 51.8057 5.89473 56.4829 9.3489C63.0809 14.2226 66.302 24.1934 58.2198 31.2871C58.1229 31.3713 58.2338 31.6929 58.2493 31.9035C63.5822 33.4733 66.3511 31.6957 66.6685 26.4962C66.6825 26.2729 66.6952 26.0455 66.6741 25.8236C66.5561 24.5908 67.2596 23.9814 68.3141 23.6149C69.297 23.2737 70.0538 23.563 70.6675 24.3759C71.479 25.4487 72.3931 26.4527 73.1219 27.5774C75.346 31.0091 81.2813 33.42 87.4356 31.7701C85.8784 30.6651 84.3409 29.7748 83.0477 28.6122C81.0496 26.8163 79.1807 24.873 77.3329 22.9199C76.2643 21.7909 75.1691 20.9765 73.515 21.3978C73.1949 21.4792 72.8453 21.4596 72.5097 21.4553C71.1575 21.4399 70.4091 20.5904 70.2167 19.4123C69.9865 18.0096 71.0732 17.4634 72.2008 17.125C73.6203 16.6981 74.7774 17.3511 75.999 18.004C79.3829 19.8139 82.5085 18.8254 84.1514 15.5299C84.4504 14.9289 84.8366 14.2367 84.4013 13.6287C83.9253 12.9631 83.1657 13.3128 82.538 13.4799C78.4042 14.5807 74.5611 13.7214 70.8149 11.8876C67.987 10.5031 65.291 8.91361 62.6583 7.19074C57.9614 4.11709 52.8827 2.28329 47.1622 2.37737C36.679 2.54867 27.6813 10.9033 26.9525 21.1942C26.8346 22.8511 27.1772 24.4644 27.4131 26.3151C26.162 26.2168 25.1679 26.1915 24.1906 26.0553C9.31378 23.9659 1.14171 37.697 2.91935 48.44C3.81519 53.853 5.76132 58.7955 8.5064 63.4671C10.3865 66.6671 12.0799 69.9373 13.2425 73.4757C13.6694 74.776 13.5894 76.2672 14.4964 77.5688C16.3148 76.138 16.0845 74.2663 16.3485 72.5448C16.517 71.4411 17.2092 70.7686 18.3887 70.6534C19.7086 70.5242 20.1944 71.2783 20.3517 72.4156C20.6887 74.8715 22.1813 76.3697 24.2931 77.5056C26.3754 78.6261 28.2471 80.0527 29.4238 82.2109C29.6246 82.5802 29.9475 82.9649 30.8307 82.5731C30.6398 79.3408 30.088 76.1085 28.1671 73.2679C26.6689 71.0522 25.6003 68.0516 21.8597 69.1524C21.5199 69.2521 21.0186 68.9025 20.6255 68.6989C19.8336 68.2889 19.5471 67.5924 19.6735 66.7317C19.8055 65.8344 20.3657 65.4006 21.2475 65.2531C22.2599 65.0832 23.254 65.0973 24.2552 65.3051C25.1524 65.4918 26.0061 65.4806 26.8528 64.9877C30.0304 63.1441 31.0638 59.6225 29.4294 56.0715ZM56.7525 52.908C64.0273 54.2602 74.0303 53.5047 82.6616 51.5783C88.7078 50.2289 94.0477 47.6916 98.8484 43.8387C102.835 40.64 105.039 36.2718 107.046 31.7561C107.206 31.3966 107.2 30.9038 106.521 30.3435C103.673 34.0701 99.6572 36.0963 95.3872 37.8697C90.9811 39.7007 86.4513 39.0674 81.8767 38.9424C81.9061 39.5308 81.8795 39.8678 81.9469 40.1837C82.3386 42.0021 81.9455 43.6196 80.3111 44.5632C78.6191 45.5405 76.8751 45.1712 75.2253 44.1728C74.1132 43.4989 73.4926 42.4556 72.8607 41.3969C71.9719 39.9099 70.7966 39.5603 69.1608 40.2525C63.3912 42.6999 59.8247 47.2142 56.7525 52.908ZM70.0988 30.5963C66.91 34.4492 62.8843 36.071 57.9067 34.8396C56.5264 34.4984 56.1656 35.4658 55.7977 36.4389C54.5016 39.8734 51.8591 41.7802 48.4793 42.7926C47.4136 43.1113 46.2945 43.3402 45.1866 43.4146C43.482 43.5283 42.5047 44.2037 42.3643 46.0179C42.2098 48.0174 41.102 49.5156 39.7161 50.931C37.7307 52.9599 35.2159 53.728 32.336 54.2924C34.3298 59.8416 31.9821 63.8349 27.5872 67.1585C29.9897 68.6904 31.3489 71.0157 34.1024 72.1025C34.4492 69.269 35.3773 66.8763 36.4627 64.5665C39.132 58.8938 43.2559 54.7221 49.6181 53.6592C52.4137 53.1916 53.9063 51.7397 55.2051 49.5549C59.2813 42.6999 65.0818 38.0831 72.8832 36.0864C73.5642 35.9123 74.5148 36.0387 74.8377 34.6753C73.2483 33.5548 72.1123 31.7364 70.0988 30.5963ZM30.4376 103.465C32.614 103.681 32.5943 103.653 33.5955 102.908C37.7826 99.7878 41.2789 96.0486 43.7993 91.4585C49.4833 81.1058 51.4701 69.7885 52.3477 58.2016C52.5036 56.1403 52.0739 55.8805 50.0239 56.1642C44.559 56.9182 41.3533 60.4496 39.1193 65.1197C37.374 68.7663 37.7321 69.5708 41.4895 70.8767C43.5648 71.597 44.6881 73.5698 44.2037 75.6423C43.7263 77.6895 41.8434 78.9519 39.6571 78.7665C38.8118 78.6949 38.0662 77.8454 36.9724 78.5362C36.8039 82.7837 37.1072 87.1478 36.3349 91.4711C35.5163 96.043 32.1829 99.3385 30.4376 103.465ZM49.7206 15.7293C48.3754 15.7826 47.0443 15.9539 45.7792 16.4299C42.2997 17.74 40.1008 20.9021 40.4196 24.0965C40.8113 28.0183 44.8847 30.2579 47.9626 28.2893C48.9048 27.6869 49.1659 26.7293 49.6377 25.8615C50.3061 24.6329 51.2132 24.3451 52.366 25.2297C53.1621 25.8405 53.9035 26.5271 54.7277 27.0972C56.2358 28.139 57.0389 27.9663 58.0653 26.4836C59.5748 24.3015 59.5327 21.7432 57.8631 19.6496C55.7892 17.045 53.0624 15.7321 49.7206 15.7293ZM28.747 43.4595C28.8369 40.9026 27.0578 38.9284 24.5051 38.7515C21.5677 38.5479 18.6485 40.2202 17.5027 42.9569C15.6998 47.2619 16.6055 51.2413 19.2621 54.9061C19.6398 55.427 20.2436 55.8244 20.8122 56.1628C22.4607 57.1456 24.9123 56.6879 26.3122 55.1967C27.6349 53.787 27.802 52.3168 26.5467 50.4802C25.7604 49.3302 25.7239 48.4835 26.8135 47.6158C28.1474 46.5529 28.4465 45.0041 28.747 43.4595ZM5.25021 0.62922C7.54597 0.759804 10.6407 1.65003 13.3507 3.5779C14.7337 4.5608 15.8332 4.95817 16.8568 3.17492C17.118 2.71998 17.6431 2.38158 18.1107 2.08952C19.7619 1.05889 20.4598 1.27512 20.9639 3.12998C21.5298 5.21372 22.5126 7.08543 23.6023 8.9094C24.9601 11.1827 24.9488 13.4026 24.2088 15.968C23.2203 19.3983 21.628 21.6056 17.9857 22.7472C14.4417 23.8578 11.3484 24.5206 8.26068 21.8836C6.87339 20.6985 5.16877 20.2015 3.28583 20.1523C1.68511 20.1102 1.42394 19.512 1.96173 17.9956C2.27204 17.1208 2.79017 16.3808 3.5147 15.8472C4.84722 14.8643 4.93007 13.8393 4.1241 12.4043C2.6315 9.74908 1.90135 6.8032 1.39165 3.81801C0.874927 0.790697 1.10661 0.560417 5.25021 0.62922ZM12.2007 18.7412C13.185 19.9178 14.1735 20.9513 15.4176 20.662C16.913 20.3138 18.6681 20.4191 19.8701 19.3899C21.8485 17.6965 21.7713 13.1036 19.9164 10.6028C19.3154 11.5365 18.7285 12.4787 18.1107 13.3998C17.4325 14.4108 16.715 14.4515 16.0719 13.3746C15.6717 12.7034 15.4035 11.9522 14.9795 11.2992C13.0418 8.30984 10.3739 6.42268 6.61363 5.64479C6.92394 10.1703 9.20566 12.7132 12.9224 14.2676C13.8856 14.6706 15.3614 14.9668 15.3305 16.2783C15.2968 17.7555 13.793 17.9787 12.6514 18.3929C12.5545 18.428 12.4801 18.5221 12.2007 18.7412Z" fill="#E4DDCD"/>
</svg>
